{"title":"CHVRCHES at Coachella Apr-19-2014 1080i","uid":10558759,"size":1585739542,"categoryP":"video","categoryS":"music_videos","magnet":"?xt=urn:btih:d2a90f2bd87fcf84090adb464dd1836c06bf24c9&amp;dn=CHVRCHES+at+Coachella+Apr-19-2014+1080i&amp;tr=udp%3A%2F%2Ftracker.openbittorrent.com%3A80&amp;tr=udp%3A%2F%2Fopen.demonii.com%3A1337&amp;tr=udp%3A%2F%2Ftracker.coppersurfer.tk%3A6969&amp;tr=udp%3A%2F%2Fexodus.desync.com%3A6969","seeders":1,"leechers":1,"uploader":"doragon69","files":2,"time":1405429879,"description":"CHVRCHES at Coachella weekend two, day two.\n\nMediaPlayerClassic thumbnails:  &lt;a href=&quot;\nhttp://image.bayimg.com/24c2f92f43391a32bae392e808f6a9b46c7a9c7a.jpg&quot; rel=&quot;nofollow&quot; target=&quot;_NEW&quot;&gt;\nhttp://image.bayimg.com/24c2f92f43391a32bae392e808f6a9b46c7a9c7a.jpg&lt;/a&gt;\n\n.TS container\nVideo: MPEG2 Video 1920x1080 29.97fps 8783Kbps 1080i\nAudio: Dolby AC3 48000Hz 6ch 384kbps \n\nSetlist (shown):\nWe Sink\nRecover\nTether\nUnder the Tide\nThe Mother We Share\n\nVideo\nID : 256 (0x100)\nMenu ID : 1 (0x1)\nFormat : MPEG Video\nFormat version : Version 2\nFormat profile : Main@High\nFormat settings, BVOP : Yes\nFormat settings, Matrix : Custom\nFormat settings, GOP : Variable\nCodec ID : 2\nDuration : 21mn 53s\nBit rate mode : Variable\nBit rate : 8 783 Kbps\nMaximum bit rate : 20.0 Mbps\nWidth : 1 920 pixels\nHeight : 1 080 pixels\nDisplay aspect ratio : 16:9\nFrame rate : 29.970 fps\nColor space : YUV\nChroma subsampling : 4:2:0\nBit depth : 8 bits\nScan type : Interlaced\nScan order : Top Field First\nCompression mode : Lossy\nBits/(Pixel*Frame) : 0.141\nTime code of first frame : 00:22:52;13\nTime code source : Group of pictures header\nStream size : 1.34 GiB (91%)\n\nAudio\nID : 257 (0x101)\nMenu ID : 1 (0x1)\nFormat : AC-3\nFormat/Info : Audio Coding 3\nMode extension : CM (complete main)\nFormat settings, Endianness : Big\nCodec ID : 129\nDuration : 21mn 53s\nBit rate mode : Constant\nBit rate : 384 Kbps\nChannel(s) : 6 channels\nChannel positions : Front: L C R, Side: L R, LFE\nSampling rate : 48.0 KHz\nBit depth : 16 bits\nCompression mode : Lossy\nDelay relative to video : -63ms\nStream size : 60.1 MiB (4%)\nLanguage : English","torrent":{"xt":"urn:btih:d2a90f2bd87fcf84090adb464dd1836c06bf24c9","amp;dn":"CHVRCHES+at+Coachella+Apr-19-2014+1080i","amp;tr":["udp%3A%2F%2Ftracker.openbittorrent.com%3A80","udp%3A%2F%2Fopen.demonii.com%3A1337","udp%3A%2F%2Ftracker.coppersurfer.tk%3A6969","udp%3A%2F%2Fexodus.desync.com%3A6969"],"infoHash":"d2a90f2bd87fcf84090adb464dd1836c06bf24c9","infoHashBuffer":{"type":"Buffer","data":[210,169,15,43,216,127,207,132,9,10,219,70,77,209,131,108,6,191,36,201]},"announce":[],"urlList":[]}}